<svg xmlns="http://www.w3.org/2000/svg" xmlns:xlink="http://www.w3.org/1999/xlink" id="terminal" width="720" baseProfile="full" version="1.1" viewBox="0 0 720 104"><defs><termtosvg:template_settings xmlns:termtosvg="https://github.com/nbedos/termtosvg"><termtosvg:screen_geometry columns="90" rows="6"/><termtosvg:animation type="css"/></termtosvg:template_settings><style id="generated-style" type="text/css">@keyframes roll{0%{transform:translateY(0)}.367%{transform:translateY(-136px)}.384%{transform:translateY(-272px)}8.483%{transform:translateY(-408px)}15.969%{transform:translateY(-544px)}15.995%{transform:translateY(-680px)}16.02%{transform:translateY(-816px)}16.191%{transform:translateY(-952px)}16.208%{transform:translateY(-1088px)}16.898%{transform:translateY(-1224px)}17.614%{transform:translateY(-1360px)}18.322%{transform:translateY(-1496px)}19.038%{transform:translateY(-1632px)}19.754%{transform:translateY(-1768px)}20.471%{transform:translateY(-1904px)}21.187%{transform:translateY(-2040px)}21.894%{transform:translateY(-2176px)}22.611%{transform:translateY(-2312px)}23.318%{transform:translateY(-2448px)}24.026%{transform:translateY(-2584px)}24.742%{transform:translateY(-2720px)}24.776%{transform:translateY(-2856px)}25.45%{transform:translateY(-2992px)}26.157%{transform:translateY(-3128px)}26.874%{transform:translateY(-3264px)}27.581%{transform:translateY(-3400px)}28.289%{transform:translateY(-3536px)}29.005%{transform:translateY(-3672px)}29.713%{transform:translateY(-3808px)}30.42%{transform:translateY(-3944px)}31.136%{transform:translateY(-4080px)}31.844%{transform:translateY(-4216px)}32.552%{transform:translateY(-4352px)}33.268%{transform:translateY(-4488px)}33.976%{transform:translateY(-4624px)}34.692%{transform:translateY(-4760px)}35.399%{transform:translateY(-4896px)}36.116%{transform:translateY(-5032px)}36.815%{transform:translateY(-5168px)}37.531%{transform:translateY(-5304px)}38.239%{transform:translateY(-5440px)}38.946%{transform:translateY(-5576px)}39.654%{transform:translateY(-5712px)}40.37%{transform:translateY(-5848px)}41.086%{transform:translateY(-5984px)}41.794%{transform:translateY(-6120px)}42.501%{transform:translateY(-6256px)}43.218%{transform:translateY(-6392px)}43.925%{transform:translateY(-6528px)}44.633%{transform:translateY(-6664px)}45.341%{transform:translateY(-6800px)}46.057%{transform:translateY(-6936px)}46.764%{transform:translateY(-7072px)}47.481%{transform:translateY(-7208px)}48.188%{transform:translateY(-7344px)}48.896%{transform:translateY(-7480px)}49.612%{transform:translateY(-7616px)}50.32%{transform:translateY(-7752px)}51.019%{transform:translateY(-7888px)}51.744%{transform:translateY(-8024px)}52.451%{transform:translateY(-8160px)}53.159%{transform:translateY(-8296px)}53.875%{transform:translateY(-8432px)}54.574%{transform:translateY(-8568px)}55.29%{transform:translateY(-8704px)}56.006%{transform:translateY(-8840px)}56.714%{transform:translateY(-8976px)}57.422%{transform:translateY(-9112px)}58.129%{transform:translateY(-9248px)}58.837%{transform:translateY(-9384px)}59.553%{transform:translateY(-9520px)}60.269%{transform:translateY(-9656px)}60.994%{transform:translateY(-9792px)}61.71%{transform:translateY(-9928px)}62.426%{transform:translateY(-10064px)}63.143%{transform:translateY(-10200px)}63.859%{transform:translateY(-10336px)}64.584%{transform:translateY(-10472px)}65.3%{transform:translateY(-10608px)}66.007%{transform:translateY(-10744px)}66.724%{transform:translateY(-10880px)}67.44%{transform:translateY(-11016px)}68.156%{transform:translateY(-11152px)}68.864%{transform:translateY(-11288px)}69.588%{transform:translateY(-11424px)}70.304%{transform:translateY(-11560px)}71.021%{transform:translateY(-11696px)}71.737%{transform:translateY(-11832px)}72.453%{transform:translateY(-11968px)}73.169%{transform:translateY(-12104px)}73.885%{transform:translateY(-12240px)}74.601%{transform:translateY(-12376px)}75.318%{transform:translateY(-12512px)}76.042%{transform:translateY(-12648px)}76.75%{transform:translateY(-12784px)}77.466%{transform:translateY(-12920px)}78.174%{transform:translateY(-13056px)}78.898%{transform:translateY(-13192px)}79.615%{transform:translateY(-13328px)}80.331%{transform:translateY(-13464px)}81.047%{transform:translateY(-13600px)}81.763%{transform:translateY(-13736px)}82.488%{transform:translateY(-13872px)}83.195%{transform:translateY(-14008px)}83.912%{transform:translateY(-14144px)}84.619%{transform:translateY(-14280px)}85.344%{transform:translateY(-14416px)}86.052%{transform:translateY(-14552px)}86.776%{transform:translateY(-14688px)}87.484%{transform:translateY(-14824px)}87.51%{transform:translateY(-14960px)}87.851%{transform:translateY(-15096px)}87.885%{transform:translateY(-15232px)}91.474%{transform:translateY(-15368px)}}#screen{font-family:&apos;DejaVu Sans Mono&apos;,monospace;font-style:normal;font-size:14px}text{dominant-baseline:text-before-edge;white-space:pre}:root{--animation-duration:11729ms}#screen_view{animation-duration:11729ms;animation-iteration-count:infinite;animation-name:roll;animation-timing-function:steps(1,end);animation-fill-mode:forwards}</style><style id="user-style" type="text/css">.foreground{fill:#586e75}.background{fill:#fdf6e3}.color2{fill:#859900}.color3{fill:#b58900}.color5{fill:#6c71c4}.color9{fill:#cb4b16}.color10{fill:#eee8d5}.color11{fill:#93a1a1}.color12{fill:#657b83}.color13{fill:#073642}.color14{fill:#d33682}</style></defs><svg id="screen" width="720" height="102" preserveAspectRatio="xMidYMin slice" viewBox="0 0 720 102"><rect width="100%" height="100%" x="0" y="0" class="background"/><defs><g id="g3"><text x="0" class="color14" font-weight="bold" textLength="48">inhere</text><text x="48" class="color3" textLength="8">@</text><text x="56" class="color12" font-weight="bold" textLength="72">InhereMac</text><text x="128" class="foreground" textLength="8">:</text><text x="136" class="color10" font-weight="bold" textLength="232">~/Workspace/godev/gookit/gcli</text><text x="368" class="color13" font-weight="bold" textLength="8">^</text><text x="376" class="color11" font-weight="bold" textLength="48">master</text><text x="424" class="color9" font-weight="bold" textLength="16">±</text></g><g id="g4"><text x="0" class="color5" textLength="16">%</text></g><g id="g5"><text x="0" class="color5" textLength="16">%</text><text x="24" class="foreground" textLength="696">20-08-01 - 10:36:34</text></g><g id="g6"><text x="0" class="color5" textLength="16">%</text><text x="16" class="background" textLength="144">./cliapp prog txt</text><text x="160" class="foreground" textLength="560">20-08-01 - 10:36:34</text></g><g id="g7"><text x="0" class="color5" textLength="16">%</text><text x="16" class="foreground" textLength="136">./cliapp prog txt</text><text x="160" class="foreground" textLength="560">20-08-01 - 10:36:34</text></g><g id="g8"><text x="0" class="color5" textLength="16">%</text><text x="16" class="foreground" textLength="704">./cliapp prog txt 20-08-01 - 10:36:34</text></g><g id="g10"><text x="0" class="color2" textLength="112">Progress Demo:</text></g><g id="g11"><text x="0" class="foreground" textLength="200">Handling ... 0.0%(0/100)</text></g><g id="g12"><text x="0" class="foreground" textLength="200">Handling ... 1.0%(1/100)</text></g><g id="g13"><text x="0" class="foreground" textLength="200">Handling ... 2.0%(2/100)</text></g><g id="g14"><text x="0" class="foreground" textLength="200">Handling ... 3.0%(3/100)</text></g><g id="g15"><text x="0" class="foreground" textLength="200">Handling ... 4.0%(4/100)</text></g><g id="g16"><text x="0" class="foreground" textLength="200">Handling ... 5.0%(5/100)</text></g><g id="g17"><text x="0" class="foreground" textLength="200">Handling ... 6.0%(6/100)</text></g><g id="g18"><text x="0" class="foreground" textLength="200">Handling ... 7.0%(7/100)</text></g><g id="g19"><text x="0" class="foreground" textLength="200">Handling ... 8.0%(8/100)</text></g><g id="g20"><text x="0" class="foreground" textLength="200">Handling ... 9.0%(9/100)</text></g><g id="g21"><text x="0" class="foreground" textLength="208">Handling ... 10.0%(10/100)</text></g><g id="g22"><text x="0" class="foreground" textLength="208">Handling ... 11.0%(11/100)</text></g><g id="g23"><text x="0" class="foreground" textLength="208">Handling ... 12.0%(12/100)</text></g><g id="g24"><text x="0" class="foreground" textLength="208">Handling ... 13.0%(13/100)</text></g><g id="g25"><text x="0" class="foreground" textLength="208">Handling ... 14.0%(14/100)</text></g><g id="g26"><text x="0" class="foreground" textLength="208">Handling ... 15.0%(15/100)</text></g><g id="g27"><text x="0" class="foreground" textLength="208">Handling ... 16.0%(16/100)</text></g><g id="g28"><text x="0" class="foreground" textLength="208">Handling ... 17.0%(17/100)</text></g><g id="g29"><text x="0" class="foreground" textLength="208">Handling ... 18.0%(18/100)</text></g><g id="g30"><text x="0" class="foreground" textLength="208">Handling ... 19.0%(19/100)</text></g><g id="g31"><text x="0" class="foreground" textLength="208">Handling ... 20.0%(20/100)</text></g><g id="g32"><text x="0" class="foreground" textLength="208">Handling ... 21.0%(21/100)</text></g><g id="g33"><text x="0" class="foreground" textLength="208">Handling ... 22.0%(22/100)</text></g><g id="g34"><text x="0" class="foreground" textLength="208">Handling ... 23.0%(23/100)</text></g><g id="g35"><text x="0" class="foreground" textLength="208">Handling ... 24.0%(24/100)</text></g><g id="g36"><text x="0" class="foreground" textLength="208">Handling ... 25.0%(25/100)</text></g><g id="g37"><text x="0" class="foreground" textLength="208">Handling ... 26.0%(26/100)</text></g><g id="g38"><text x="0" class="foreground" textLength="208">Handling ... 27.0%(27/100)</text></g><g id="g39"><text x="0" class="foreground" textLength="208">Handling ... 28.0%(28/100)</text></g><g id="g40"><text x="0" class="foreground" textLength="208">Handling ... 29.0%(29/100)</text></g><g id="g41"><text x="0" class="foreground" textLength="208">Handling ... 30.0%(30/100)</text></g><g id="g42"><text x="0" class="foreground" textLength="208">Handling ... 31.0%(31/100)</text></g><g id="g43"><text x="0" class="foreground" textLength="208">Handling ... 32.0%(32/100)</text></g><g id="g44"><text x="0" class="foreground" textLength="208">Handling ... 33.0%(33/100)</text></g><g id="g45"><text x="0" class="foreground" textLength="208">Handling ... 34.0%(34/100)</text></g><g id="g46"><text x="0" class="foreground" textLength="208">Handling ... 35.0%(35/100)</text></g><g id="g47"><text x="0" class="foreground" textLength="208">Handling ... 36.0%(36/100)</text></g><g id="g48"><text x="0" class="foreground" textLength="208">Handling ... 37.0%(37/100)</text></g><g id="g49"><text x="0" class="foreground" textLength="208">Handling ... 38.0%(38/100)</text></g><g id="g50"><text x="0" class="foreground" textLength="208">Handling ... 39.0%(39/100)</text></g><g id="g51"><text x="0" class="foreground" textLength="208">Handling ... 40.0%(40/100)</text></g><g id="g52"><text x="0" class="foreground" textLength="208">Handling ... 41.0%(41/100)</text></g><g id="g53"><text x="0" class="foreground" textLength="208">Handling ... 42.0%(42/100)</text></g><g id="g54"><text x="0" class="foreground" textLength="208">Handling ... 43.0%(43/100)</text></g><g id="g55"><text x="0" class="foreground" textLength="208">Handling ... 44.0%(44/100)</text></g><g id="g56"><text x="0" class="foreground" textLength="208">Handling ... 45.0%(45/100)</text></g><g id="g57"><text x="0" class="foreground" textLength="208">Handling ... 46.0%(46/100)</text></g><g id="g58"><text x="0" class="foreground" textLength="208">Handling ... 47.0%(47/100)</text></g><g id="g59"><text x="0" class="foreground" textLength="208">Handling ... 48.0%(48/100)</text></g><g id="g60"><text x="0" class="foreground" textLength="208">Handling ... 49.0%(49/100)</text></g><g id="g61"><text x="0" class="foreground" textLength="208">Handling ... 50.0%(50/100)</text></g><g id="g62"><text x="0" class="foreground" textLength="208">Handling ... 51.0%(51/100)</text></g><g id="g63"><text x="0" class="foreground" textLength="208">Handling ... 52.0%(52/100)</text></g><g id="g64"><text x="0" class="foreground" textLength="208">Handling ... 53.0%(53/100)</text></g><g id="g65"><text x="0" class="foreground" textLength="208">Handling ... 54.0%(54/100)</text></g><g id="g66"><text x="0" class="foreground" textLength="208">Handling ... 55.0%(55/100)</text></g><g id="g67"><text x="0" class="foreground" textLength="208">Handling ... 56.0%(56/100)</text></g><g id="g68"><text x="0" class="foreground" textLength="208">Handling ... 57.0%(57/100)</text></g><g id="g69"><text x="0" class="foreground" textLength="208">Handling ... 58.0%(58/100)</text></g><g id="g70"><text x="0" class="foreground" textLength="208">Handling ... 59.0%(59/100)</text></g><g id="g71"><text x="0" class="foreground" textLength="208">Handling ... 60.0%(60/100)</text></g><g id="g72"><text x="0" class="foreground" textLength="208">Handling ... 61.0%(61/100)</text></g><g id="g73"><text x="0" class="foreground" textLength="208">Handling ... 62.0%(62/100)</text></g><g id="g74"><text x="0" class="foreground" textLength="208">Handling ... 63.0%(63/100)</text></g><g id="g75"><text x="0" class="foreground" textLength="208">Handling ... 64.0%(64/100)</text></g><g id="g76"><text x="0" class="foreground" textLength="208">Handling ... 65.0%(65/100)</text></g><g id="g77"><text x="0" class="foreground" textLength="208">Handling ... 66.0%(66/100)</text></g><g id="g78"><text x="0" class="foreground" textLength="208">Handling ... 67.0%(67/100)</text></g><g id="g79"><text x="0" class="foreground" textLength="208">Handling ... 68.0%(68/100)</text></g><g id="g80"><text x="0" class="foreground" textLength="208">Handling ... 69.0%(69/100)</text></g><g id="g81"><text x="0" class="foreground" textLength="208">Handling ... 70.0%(70/100)</text></g><g id="g82"><text x="0" class="foreground" textLength="208">Handling ... 71.0%(71/100)</text></g><g id="g83"><text x="0" class="foreground" textLength="208">Handling ... 72.0%(72/100)</text></g><g id="g84"><text x="0" class="foreground" textLength="208">Handling ... 73.0%(73/100)</text></g><g id="g85"><text x="0" class="foreground" textLength="208">Handling ... 74.0%(74/100)</text></g><g id="g86"><text x="0" class="foreground" textLength="208">Handling ... 75.0%(75/100)</text></g><g id="g87"><text x="0" class="foreground" textLength="208">Handling ... 76.0%(76/100)</text></g><g id="g88"><text x="0" class="foreground" textLength="208">Handling ... 77.0%(77/100)</text></g><g id="g89"><text x="0" class="foreground" textLength="208">Handling ... 78.0%(78/100)</text></g><g id="g90"><text x="0" class="foreground" textLength="208">Handling ... 79.0%(79/100)</text></g><g id="g91"><text x="0" class="foreground" textLength="208">Handling ... 80.0%(80/100)</text></g><g id="g92"><text x="0" class="foreground" textLength="208">Handling ... 81.0%(81/100)</text></g><g id="g93"><text x="0" class="foreground" textLength="208">Handling ... 82.0%(82/100)</text></g><g id="g94"><text x="0" class="foreground" textLength="208">Handling ... 83.0%(83/100)</text></g><g id="g95"><text x="0" class="foreground" textLength="208">Handling ... 84.0%(84/100)</text></g><g id="g96"><text x="0" class="foreground" textLength="208">Handling ... 85.0%(85/100)</text></g><g id="g97"><text x="0" class="foreground" textLength="208">Handling ... 86.0%(86/100)</text></g><g id="g98"><text x="0" class="foreground" textLength="208">Handling ... 87.0%(87/100)</text></g><g id="g99"><text x="0" class="foreground" textLength="208">Handling ... 88.0%(88/100)</text></g><g id="g100"><text x="0" class="foreground" textLength="208">Handling ... 89.0%(89/100)</text></g><g id="g101"><text x="0" class="foreground" textLength="208">Handling ... 90.0%(90/100)</text></g><g id="g102"><text x="0" class="foreground" textLength="208">Handling ... 91.0%(91/100)</text></g><g id="g103"><text x="0" class="foreground" textLength="208">Handling ... 92.0%(92/100)</text></g><g id="g104"><text x="0" class="foreground" textLength="208">Handling ... 93.0%(93/100)</text></g><g id="g105"><text x="0" class="foreground" textLength="208">Handling ... 94.0%(94/100)</text></g><g id="g106"><text x="0" class="foreground" textLength="208">Handling ... 95.0%(95/100)</text></g><g id="g107"><text x="0" class="foreground" textLength="208">Handling ... 96.0%(96/100)</text></g><g id="g108"><text x="0" class="foreground" textLength="208">Handling ... 97.0%(97/100)</text></g><g id="g109"><text x="0" class="foreground" textLength="208">Handling ... 98.0%(98/100)</text></g><g id="g110"><text x="0" class="foreground" textLength="208">Handling ... 99.0%(99/100)</text></g><g id="g111"><text x="0" class="foreground" textLength="720">Completed</text></g><g id="g112"><text x="0" class="color5" textLength="16">%</text><text x="24" class="foreground" textLength="696">20-08-01 - 10:36:44</text></g><g id="g113"><text x="0" class="color5" textLength="16">%</text><text x="16" class="foreground" textLength="704">20-08-01 - 10:36:44</text></g></defs><g id="screen_view"><g><rect width="8" height="17" x="0" y="0" class="foreground"/><use y="0" xlink:href="#g1"/></g><g><use y="136" xlink:href="#g2"/><use y="153" xlink:href="#g3"/><rect width="8" height="17" x="16" y="170" class="foreground"/><use y="170" xlink:href="#g4"/></g><g><use y="272" xlink:href="#g2"/><use y="289" xlink:href="#g3"/><rect width="8" height="17" x="16" y="306" class="foreground"/><use y="306" xlink:href="#g5"/></g><g><use y="408" xlink:href="#g2"/><use y="425" xlink:href="#g3"/><rect width="144" height="17" x="16" y="442" class="foreground"/><use y="442" xlink:href="#g6"/></g><g><use y="544" xlink:href="#g2"/><use y="561" xlink:href="#g3"/><rect width="8" height="17" x="152" y="578" class="foreground"/><use y="578" xlink:href="#g7"/></g><g><use y="680" xlink:href="#g2"/><use y="697" xlink:href="#g3"/><use y="714" xlink:href="#g8"/><rect width="8" height="17" x="0" y="731" class="foreground"/><use y="731" xlink:href="#g9"/></g><g><use y="816" xlink:href="#g2"/><use y="833" xlink:href="#g3"/><use y="850" xlink:href="#g8"/><rect width="8" height="17" x="0" y="867" class="foreground"/><use y="867" xlink:href="#g9"/></g><g><use y="952" xlink:href="#g2"/><use y="969" xlink:href="#g3"/><use y="986" xlink:href="#g8"/><use y="1003" xlink:href="#g10"/><rect width="8" height="17" x="0" y="1020" class="foreground"/><use y="1020" xlink:href="#g9"/></g><g><use y="1088" xlink:href="#g2"/><use y="1105" xlink:href="#g3"/><use y="1122" xlink:href="#g8"/><use y="1139" xlink:href="#g10"/><rect width="8" height="17" x="200" y="1156" class="foreground"/><use y="1156" xlink:href="#g11"/></g><g><use y="1224" xlink:href="#g2"/><use y="1241" xlink:href="#g3"/><use y="1258" xlink:href="#g8"/><use y="1275" xlink:href="#g10"/><rect width="8" height="17" x="200" y="1292" class="foreground"/><use y="1292" xlink:href="#g12"/></g><g><use y="1360" xlink:href="#g2"/><use y="1377" xlink:href="#g3"/><use y="1394" xlink:href="#g8"/><use y="1411" xlink:href="#g10"/><rect width="8" height="17" x="200" y="1428" class="foreground"/><use y="1428" xlink:href="#g13"/></g><g><use y="1496" xlink:href="#g2"/><use y="1513" xlink:href="#g3"/><use y="1530" xlink:href="#g8"/><use y="1547" xlink:href="#g10"/><rect width="8" height="17" x="200" y="1564" class="foreground"/><use y="1564" xlink:href="#g14"/></g><g><use y="1632" xlink:href="#g2"/><use y="1649" xlink:href="#g3"/><use y="1666" xlink:href="#g8"/><use y="1683" xlink:href="#g10"/><rect width="8" height="17" x="200" y="1700" class="foreground"/><use y="1700" xlink:href="#g15"/></g><g><use y="1768" xlink:href="#g2"/><use y="1785" xlink:href="#g3"/><use y="1802" xlink:href="#g8"/><use y="1819" xlink:href="#g10"/><rect width="8" height="17" x="200" y="1836" class="foreground"/><use y="1836" xlink:href="#g16"/></g><g><use y="1904" xlink:href="#g2"/><use y="1921" xlink:href="#g3"/><use y="1938" xlink:href="#g8"/><use y="1955" xlink:href="#g10"/><rect width="8" height="17" x="200" y="1972" class="foreground"/><use y="1972" xlink:href="#g17"/></g><g><use y="2040" xlink:href="#g2"/><use y="2057" xlink:href="#g3"/><use y="2074" xlink:href="#g8"/><use y="2091" xlink:href="#g10"/><rect width="8" height="17" x="200" y="2108" class="foreground"/><use y="2108" xlink:href="#g18"/></g><g><use y="2176" xlink:href="#g2"/><use y="2193" xlink:href="#g3"/><use y="2210" xlink:href="#g8"/><use y="2227" xlink:href="#g10"/><rect width="8" height="17" x="200" y="2244" class="foreground"/><use y="2244" xlink:href="#g19"/></g><g><use y="2312" xlink:href="#g2"/><use y="2329" xlink:href="#g3"/><use y="2346" xlink:href="#g8"/><use y="2363" xlink:href="#g10"/><rect width="8" height="17" x="200" y="2380" class="foreground"/><use y="2380" xlink:href="#g20"/></g><g><use y="2448" xlink:href="#g2"/><use y="2465" xlink:href="#g3"/><use y="2482" xlink:href="#g8"/><use y="2499" xlink:href="#g10"/><rect width="8" height="17" x="208" y="2516" class="foreground"/><use y="2516" xlink:href="#g21"/></g><g><use y="2584" xlink:href="#g2"/><use y="2601" xlink:href="#g3"/><use y="2618" xlink:href="#g8"/><use y="2635" xlink:href="#g10"/><rect width="8" height="17" x="208" y="2652" class="foreground"/><use y="2652" xlink:href="#g22"/></g><g><use y="2720" xlink:href="#g2"/><use y="2737" xlink:href="#g3"/><use y="2754" xlink:href="#g8"/><use y="2771" xlink:href="#g10"/><rect width="8" height="17" x="0" y="2788" class="foreground"/><use y="2788" xlink:href="#g1"/></g><g><use y="2856" xlink:href="#g2"/><use y="2873" xlink:href="#g3"/><use y="2890" xlink:href="#g8"/><use y="2907" xlink:href="#g10"/><rect width="8" height="17" x="208" y="2924" class="foreground"/><use y="2924" xlink:href="#g23"/></g><g><use y="2992" xlink:href="#g2"/><use y="3009" xlink:href="#g3"/><use y="3026" xlink:href="#g8"/><use y="3043" xlink:href="#g10"/><rect width="8" height="17" x="208" y="3060" class="foreground"/><use y="3060" xlink:href="#g24"/></g><g><use y="3128" xlink:href="#g2"/><use y="3145" xlink:href="#g3"/><use y="3162" xlink:href="#g8"/><use y="3179" xlink:href="#g10"/><rect width="8" height="17" x="208" y="3196" class="foreground"/><use y="3196" xlink:href="#g25"/></g><g><use y="3264" xlink:href="#g2"/><use y="3281" xlink:href="#g3"/><use y="3298" xlink:href="#g8"/><use y="3315" xlink:href="#g10"/><rect width="8" height="17" x="208" y="3332" class="foreground"/><use y="3332" xlink:href="#g26"/></g><g><use y="3400" xlink:href="#g2"/><use y="3417" xlink:href="#g3"/><use y="3434" xlink:href="#g8"/><use y="3451" xlink:href="#g10"/><rect width="8" height="17" x="208" y="3468" class="foreground"/><use y="3468" xlink:href="#g27"/></g><g><use y="3536" xlink:href="#g2"/><use y="3553" xlink:href="#g3"/><use y="3570" xlink:href="#g8"/><use y="3587" xlink:href="#g10"/><rect width="8" height="17" x="208" y="3604" class="foreground"/><use y="3604" xlink:href="#g28"/></g><g><use y="3672" xlink:href="#g2"/><use y="3689" xlink:href="#g3"/><use y="3706" xlink:href="#g8"/><use y="3723" xlink:href="#g10"/><rect width="8" height="17" x="208" y="3740" class="foreground"/><use y="3740" xlink:href="#g29"/></g><g><use y="3808" xlink:href="#g2"/><use y="3825" xlink:href="#g3"/><use y="3842" xlink:href="#g8"/><use y="3859" xlink:href="#g10"/><rect width="8" height="17" x="208" y="3876" class="foreground"/><use y="3876" xlink:href="#g30"/></g><g><use y="3944" xlink:href="#g2"/><use y="3961" xlink:href="#g3"/><use y="3978" xlink:href="#g8"/><use y="3995" xlink:href="#g10"/><rect width="8" height="17" x="208" y="4012" class="foreground"/><use y="4012" xlink:href="#g31"/></g><g><use y="4080" xlink:href="#g2"/><use y="4097" xlink:href="#g3"/><use y="4114" xlink:href="#g8"/><use y="4131" xlink:href="#g10"/><rect width="8" height="17" x="208" y="4148" class="foreground"/><use y="4148" xlink:href="#g32"/></g><g><use y="4216" xlink:href="#g2"/><use y="4233" xlink:href="#g3"/><use y="4250" xlink:href="#g8"/><use y="4267" xlink:href="#g10"/><rect width="8" height="17" x="208" y="4284" class="foreground"/><use y="4284" xlink:href="#g33"/></g><g><use y="4352" xlink:href="#g2"/><use y="4369" xlink:href="#g3"/><use y="4386" xlink:href="#g8"/><use y="4403" xlink:href="#g10"/><rect width="8" height="17" x="208" y="4420" class="foreground"/><use y="4420" xlink:href="#g34"/></g><g><use y="4488" xlink:href="#g2"/><use y="4505" xlink:href="#g3"/><use y="4522" xlink:href="#g8"/><use y="4539" xlink:href="#g10"/><rect width="8" height="17" x="208" y="4556" class="foreground"/><use y="4556" xlink:href="#g35"/></g><g><use y="4624" xlink:href="#g2"/><use y="4641" xlink:href="#g3"/><use y="4658" xlink:href="#g8"/><use y="4675" xlink:href="#g10"/><rect width="8" height="17" x="208" y="4692" class="foreground"/><use y="4692" xlink:href="#g36"/></g><g><use y="4760" xlink:href="#g2"/><use y="4777" xlink:href="#g3"/><use y="4794" xlink:href="#g8"/><use y="4811" xlink:href="#g10"/><rect width="8" height="17" x="208" y="4828" class="foreground"/><use y="4828" xlink:href="#g37"/></g><g><use y="4896" xlink:href="#g2"/><use y="4913" xlink:href="#g3"/><use y="4930" xlink:href="#g8"/><use y="4947" xlink:href="#g10"/><rect width="8" height="17" x="208" y="4964" class="foreground"/><use y="4964" xlink:href="#g38"/></g><g><use y="5032" xlink:href="#g2"/><use y="5049" xlink:href="#g3"/><use y="5066" xlink:href="#g8"/><use y="5083" xlink:href="#g10"/><rect width="8" height="17" x="208" y="5100" class="foreground"/><use y="5100" xlink:href="#g39"/></g><g><use y="5168" xlink:href="#g2"/><use y="5185" xlink:href="#g3"/><use y="5202" xlink:href="#g8"/><use y="5219" xlink:href="#g10"/><rect width="8" height="17" x="208" y="5236" class="foreground"/><use y="5236" xlink:href="#g40"/></g><g><use y="5304" xlink:href="#g2"/><use y="5321" xlink:href="#g3"/><use y="5338" xlink:href="#g8"/><use y="5355" xlink:href="#g10"/><rect width="8" height="17" x="208" y="5372" class="foreground"/><use y="5372" xlink:href="#g41"/></g><g><use y="5440" xlink:href="#g2"/><use y="5457" xlink:href="#g3"/><use y="5474" xlink:href="#g8"/><use y="5491" xlink:href="#g10"/><rect width="8" height="17" x="208" y="5508" class="foreground"/><use y="5508" xlink:href="#g42"/></g><g><use y="5576" xlink:href="#g2"/><use y="5593" xlink:href="#g3"/><use y="5610" xlink:href="#g8"/><use y="5627" xlink:href="#g10"/><rect width="8" height="17" x="208" y="5644" class="foreground"/><use y="5644" xlink:href="#g43"/></g><g><use y="5712" xlink:href="#g2"/><use y="5729" xlink:href="#g3"/><use y="5746" xlink:href="#g8"/><use y="5763" xlink:href="#g10"/><rect width="8" height="17" x="208" y="5780" class="foreground"/><use y="5780" xlink:href="#g44"/></g><g><use y="5848" xlink:href="#g2"/><use y="5865" xlink:href="#g3"/><use y="5882" xlink:href="#g8"/><use y="5899" xlink:href="#g10"/><rect width="8" height="17" x="208" y="5916" class="foreground"/><use y="5916" xlink:href="#g45"/></g><g><use y="5984" xlink:href="#g2"/><use y="6001" xlink:href="#g3"/><use y="6018" xlink:href="#g8"/><use y="6035" xlink:href="#g10"/><rect width="8" height="17" x="208" y="6052" class="foreground"/><use y="6052" xlink:href="#g46"/></g><g><use y="6120" xlink:href="#g2"/><use y="6137" xlink:href="#g3"/><use y="6154" xlink:href="#g8"/><use y="6171" xlink:href="#g10"/><rect width="8" height="17" x="208" y="6188" class="foreground"/><use y="6188" xlink:href="#g47"/></g><g><use y="6256" xlink:href="#g2"/><use y="6273" xlink:href="#g3"/><use y="6290" xlink:href="#g8"/><use y="6307" xlink:href="#g10"/><rect width="8" height="17" x="208" y="6324" class="foreground"/><use y="6324" xlink:href="#g48"/></g><g><use y="6392" xlink:href="#g2"/><use y="6409" xlink:href="#g3"/><use y="6426" xlink:href="#g8"/><use y="6443" xlink:href="#g10"/><rect width="8" height="17" x="208" y="6460" class="foreground"/><use y="6460" xlink:href="#g49"/></g><g><use y="6528" xlink:href="#g2"/><use y="6545" xlink:href="#g3"/><use y="6562" xlink:href="#g8"/><use y="6579" xlink:href="#g10"/><rect width="8" height="17" x="208" y="6596" class="foreground"/><use y="6596" xlink:href="#g50"/></g><g><use y="6664" xlink:href="#g2"/><use y="6681" xlink:href="#g3"/><use y="6698" xlink:href="#g8"/><use y="6715" xlink:href="#g10"/><rect width="8" height="17" x="208" y="6732" class="foreground"/><use y="6732" xlink:href="#g51"/></g><g><use y="6800" xlink:href="#g2"/><use y="6817" xlink:href="#g3"/><use y="6834" xlink:href="#g8"/><use y="6851" xlink:href="#g10"/><rect width="8" height="17" x="208" y="6868" class="foreground"/><use y="6868" xlink:href="#g52"/></g><g><use y="6936" xlink:href="#g2"/><use y="6953" xlink:href="#g3"/><use y="6970" xlink:href="#g8"/><use y="6987" xlink:href="#g10"/><rect width="8" height="17" x="208" y="7004" class="foreground"/><use y="7004" xlink:href="#g53"/></g><g><use y="7072" xlink:href="#g2"/><use y="7089" xlink:href="#g3"/><use y="7106" xlink:href="#g8"/><use y="7123" xlink:href="#g10"/><rect width="8" height="17" x="208" y="7140" class="foreground"/><use y="7140" xlink:href="#g54"/></g><g><use y="7208" xlink:href="#g2"/><use y="7225" xlink:href="#g3"/><use y="7242" xlink:href="#g8"/><use y="7259" xlink:href="#g10"/><rect width="8" height="17" x="208" y="7276" class="foreground"/><use y="7276" xlink:href="#g55"/></g><g><use y="7344" xlink:href="#g2"/><use y="7361" xlink:href="#g3"/><use y="7378" xlink:href="#g8"/><use y="7395" xlink:href="#g10"/><rect width="8" height="17" x="208" y="7412" class="foreground"/><use y="7412" xlink:href="#g56"/></g><g><use y="7480" xlink:href="#g2"/><use y="7497" xlink:href="#g3"/><use y="7514" xlink:href="#g8"/><use y="7531" xlink:href="#g10"/><rect width="8" height="17" x="208" y="7548" class="foreground"/><use y="7548" xlink:href="#g57"/></g><g><use y="7616" xlink:href="#g2"/><use y="7633" xlink:href="#g3"/><use y="7650" xlink:href="#g8"/><use y="7667" xlink:href="#g10"/><rect width="8" height="17" x="208" y="7684" class="foreground"/><use y="7684" xlink:href="#g58"/></g><g><use y="7752" xlink:href="#g2"/><use y="7769" xlink:href="#g3"/><use y="7786" xlink:href="#g8"/><use y="7803" xlink:href="#g10"/><rect width="8" height="17" x="208" y="7820" class="foreground"/><use y="7820" xlink:href="#g59"/></g><g><use y="7888" xlink:href="#g2"/><use y="7905" xlink:href="#g3"/><use y="7922" xlink:href="#g8"/><use y="7939" xlink:href="#g10"/><rect width="8" height="17" x="208" y="7956" class="foreground"/><use y="7956" xlink:href="#g60"/></g><g><use y="8024" xlink:href="#g2"/><use y="8041" xlink:href="#g3"/><use y="8058" xlink:href="#g8"/><use y="8075" xlink:href="#g10"/><rect width="8" height="17" x="208" y="8092" class="foreground"/><use y="8092" xlink:href="#g61"/></g><g><use y="8160" xlink:href="#g2"/><use y="8177" xlink:href="#g3"/><use y="8194" xlink:href="#g8"/><use y="8211" xlink:href="#g10"/><rect width="8" height="17" x="208" y="8228" class="foreground"/><use y="8228" xlink:href="#g62"/></g><g><use y="8296" xlink:href="#g2"/><use y="8313" xlink:href="#g3"/><use y="8330" xlink:href="#g8"/><use y="8347" xlink:href="#g10"/><rect width="8" height="17" x="208" y="8364" class="foreground"/><use y="8364" xlink:href="#g63"/></g><g><use y="8432" xlink:href="#g2"/><use y="8449" xlink:href="#g3"/><use y="8466" xlink:href="#g8"/><use y="8483" xlink:href="#g10"/><rect width="8" height="17" x="208" y="8500" class="foreground"/><use y="8500" xlink:href="#g64"/></g><g><use y="8568" xlink:href="#g2"/><use y="8585" xlink:href="#g3"/><use y="8602" xlink:href="#g8"/><use y="8619" xlink:href="#g10"/><rect width="8" height="17" x="208" y="8636" class="foreground"/><use y="8636" xlink:href="#g65"/></g><g><use y="8704" xlink:href="#g2"/><use y="8721" xlink:href="#g3"/><use y="8738" xlink:href="#g8"/><use y="8755" xlink:href="#g10"/><rect width="8" height="17" x="208" y="8772" class="foreground"/><use y="8772" xlink:href="#g66"/></g><g><use y="8840" xlink:href="#g2"/><use y="8857" xlink:href="#g3"/><use y="8874" xlink:href="#g8"/><use y="8891" xlink:href="#g10"/><rect width="8" height="17" x="208" y="8908" class="foreground"/><use y="8908" xlink:href="#g67"/></g><g><use y="8976" xlink:href="#g2"/><use y="8993" xlink:href="#g3"/><use y="9010" xlink:href="#g8"/><use y="9027" xlink:href="#g10"/><rect width="8" height="17" x="208" y="9044" class="foreground"/><use y="9044" xlink:href="#g68"/></g><g><use y="9112" xlink:href="#g2"/><use y="9129" xlink:href="#g3"/><use y="9146" xlink:href="#g8"/><use y="9163" xlink:href="#g10"/><rect width="8" height="17" x="208" y="9180" class="foreground"/><use y="9180" xlink:href="#g69"/></g><g><use y="9248" xlink:href="#g2"/><use y="9265" xlink:href="#g3"/><use y="9282" xlink:href="#g8"/><use y="9299" xlink:href="#g10"/><rect width="8" height="17" x="208" y="9316" class="foreground"/><use y="9316" xlink:href="#g70"/></g><g><use y="9384" xlink:href="#g2"/><use y="9401" xlink:href="#g3"/><use y="9418" xlink:href="#g8"/><use y="9435" xlink:href="#g10"/><rect width="8" height="17" x="208" y="9452" class="foreground"/><use y="9452" xlink:href="#g71"/></g><g><use y="9520" xlink:href="#g2"/><use y="9537" xlink:href="#g3"/><use y="9554" xlink:href="#g8"/><use y="9571" xlink:href="#g10"/><rect width="8" height="17" x="208" y="9588" class="foreground"/><use y="9588" xlink:href="#g72"/></g><g><use y="9656" xlink:href="#g2"/><use y="9673" xlink:href="#g3"/><use y="9690" xlink:href="#g8"/><use y="9707" xlink:href="#g10"/><rect width="8" height="17" x="208" y="9724" class="foreground"/><use y="9724" xlink:href="#g73"/></g><g><use y="9792" xlink:href="#g2"/><use y="9809" xlink:href="#g3"/><use y="9826" xlink:href="#g8"/><use y="9843" xlink:href="#g10"/><rect width="8" height="17" x="208" y="9860" class="foreground"/><use y="9860" xlink:href="#g74"/></g><g><use y="9928" xlink:href="#g2"/><use y="9945" xlink:href="#g3"/><use y="9962" xlink:href="#g8"/><use y="9979" xlink:href="#g10"/><rect width="8" height="17" x="208" y="9996" class="foreground"/><use y="9996" xlink:href="#g75"/></g><g><use y="10064" xlink:href="#g2"/><use y="10081" xlink:href="#g3"/><use y="10098" xlink:href="#g8"/><use y="10115" xlink:href="#g10"/><rect width="8" height="17" x="208" y="10132" class="foreground"/><use y="10132" xlink:href="#g76"/></g><g><use y="10200" xlink:href="#g2"/><use y="10217" xlink:href="#g3"/><use y="10234" xlink:href="#g8"/><use y="10251" xlink:href="#g10"/><rect width="8" height="17" x="208" y="10268" class="foreground"/><use y="10268" xlink:href="#g77"/></g><g><use y="10336" xlink:href="#g2"/><use y="10353" xlink:href="#g3"/><use y="10370" xlink:href="#g8"/><use y="10387" xlink:href="#g10"/><rect width="8" height="17" x="208" y="10404" class="foreground"/><use y="10404" xlink:href="#g78"/></g><g><use y="10472" xlink:href="#g2"/><use y="10489" xlink:href="#g3"/><use y="10506" xlink:href="#g8"/><use y="10523" xlink:href="#g10"/><rect width="8" height="17" x="208" y="10540" class="foreground"/><use y="10540" xlink:href="#g79"/></g><g><use y="10608" xlink:href="#g2"/><use y="10625" xlink:href="#g3"/><use y="10642" xlink:href="#g8"/><use y="10659" xlink:href="#g10"/><rect width="8" height="17" x="208" y="10676" class="foreground"/><use y="10676" xlink:href="#g80"/></g><g><use y="10744" xlink:href="#g2"/><use y="10761" xlink:href="#g3"/><use y="10778" xlink:href="#g8"/><use y="10795" xlink:href="#g10"/><rect width="8" height="17" x="208" y="10812" class="foreground"/><use y="10812" xlink:href="#g81"/></g><g><use y="10880" xlink:href="#g2"/><use y="10897" xlink:href="#g3"/><use y="10914" xlink:href="#g8"/><use y="10931" xlink:href="#g10"/><rect width="8" height="17" x="208" y="10948" class="foreground"/><use y="10948" xlink:href="#g82"/></g><g><use y="11016" xlink:href="#g2"/><use y="11033" xlink:href="#g3"/><use y="11050" xlink:href="#g8"/><use y="11067" xlink:href="#g10"/><rect width="8" height="17" x="208" y="11084" class="foreground"/><use y="11084" xlink:href="#g83"/></g><g><use y="11152" xlink:href="#g2"/><use y="11169" xlink:href="#g3"/><use y="11186" xlink:href="#g8"/><use y="11203" xlink:href="#g10"/><rect width="8" height="17" x="208" y="11220" class="foreground"/><use y="11220" xlink:href="#g84"/></g><g><use y="11288" xlink:href="#g2"/><use y="11305" xlink:href="#g3"/><use y="11322" xlink:href="#g8"/><use y="11339" xlink:href="#g10"/><rect width="8" height="17" x="208" y="11356" class="foreground"/><use y="11356" xlink:href="#g85"/></g><g><use y="11424" xlink:href="#g2"/><use y="11441" xlink:href="#g3"/><use y="11458" xlink:href="#g8"/><use y="11475" xlink:href="#g10"/><rect width="8" height="17" x="208" y="11492" class="foreground"/><use y="11492" xlink:href="#g86"/></g><g><use y="11560" xlink:href="#g2"/><use y="11577" xlink:href="#g3"/><use y="11594" xlink:href="#g8"/><use y="11611" xlink:href="#g10"/><rect width="8" height="17" x="208" y="11628" class="foreground"/><use y="11628" xlink:href="#g87"/></g><g><use y="11696" xlink:href="#g2"/><use y="11713" xlink:href="#g3"/><use y="11730" xlink:href="#g8"/><use y="11747" xlink:href="#g10"/><rect width="8" height="17" x="208" y="11764" class="foreground"/><use y="11764" xlink:href="#g88"/></g><g><use y="11832" xlink:href="#g2"/><use y="11849" xlink:href="#g3"/><use y="11866" xlink:href="#g8"/><use y="11883" xlink:href="#g10"/><rect width="8" height="17" x="208" y="11900" class="foreground"/><use y="11900" xlink:href="#g89"/></g><g><use y="11968" xlink:href="#g2"/><use y="11985" xlink:href="#g3"/><use y="12002" xlink:href="#g8"/><use y="12019" xlink:href="#g10"/><rect width="8" height="17" x="208" y="12036" class="foreground"/><use y="12036" xlink:href="#g90"/></g><g><use y="12104" xlink:href="#g2"/><use y="12121" xlink:href="#g3"/><use y="12138" xlink:href="#g8"/><use y="12155" xlink:href="#g10"/><rect width="8" height="17" x="208" y="12172" class="foreground"/><use y="12172" xlink:href="#g91"/></g><g><use y="12240" xlink:href="#g2"/><use y="12257" xlink:href="#g3"/><use y="12274" xlink:href="#g8"/><use y="12291" xlink:href="#g10"/><rect width="8" height="17" x="208" y="12308" class="foreground"/><use y="12308" xlink:href="#g92"/></g><g><use y="12376" xlink:href="#g2"/><use y="12393" xlink:href="#g3"/><use y="12410" xlink:href="#g8"/><use y="12427" xlink:href="#g10"/><rect width="8" height="17" x="208" y="12444" class="foreground"/><use y="12444" xlink:href="#g93"/></g><g><use y="12512" xlink:href="#g2"/><use y="12529" xlink:href="#g3"/><use y="12546" xlink:href="#g8"/><use y="12563" xlink:href="#g10"/><rect width="8" height="17" x="208" y="12580" class="foreground"/><use y="12580" xlink:href="#g94"/></g><g><use y="12648" xlink:href="#g2"/><use y="12665" xlink:href="#g3"/><use y="12682" xlink:href="#g8"/><use y="12699" xlink:href="#g10"/><rect width="8" height="17" x="208" y="12716" class="foreground"/><use y="12716" xlink:href="#g95"/></g><g><use y="12784" xlink:href="#g2"/><use y="12801" xlink:href="#g3"/><use y="12818" xlink:href="#g8"/><use y="12835" xlink:href="#g10"/><rect width="8" height="17" x="208" y="12852" class="foreground"/><use y="12852" xlink:href="#g96"/></g><g><use y="12920" xlink:href="#g2"/><use y="12937" xlink:href="#g3"/><use y="12954" xlink:href="#g8"/><use y="12971" xlink:href="#g10"/><rect width="8" height="17" x="208" y="12988" class="foreground"/><use y="12988" xlink:href="#g97"/></g><g><use y="13056" xlink:href="#g2"/><use y="13073" xlink:href="#g3"/><use y="13090" xlink:href="#g8"/><use y="13107" xlink:href="#g10"/><rect width="8" height="17" x="208" y="13124" class="foreground"/><use y="13124" xlink:href="#g98"/></g><g><use y="13192" xlink:href="#g2"/><use y="13209" xlink:href="#g3"/><use y="13226" xlink:href="#g8"/><use y="13243" xlink:href="#g10"/><rect width="8" height="17" x="208" y="13260" class="foreground"/><use y="13260" xlink:href="#g99"/></g><g><use y="13328" xlink:href="#g2"/><use y="13345" xlink:href="#g3"/><use y="13362" xlink:href="#g8"/><use y="13379" xlink:href="#g10"/><rect width="8" height="17" x="208" y="13396" class="foreground"/><use y="13396" xlink:href="#g100"/></g><g><use y="13464" xlink:href="#g2"/><use y="13481" xlink:href="#g3"/><use y="13498" xlink:href="#g8"/><use y="13515" xlink:href="#g10"/><rect width="8" height="17" x="208" y="13532" class="foreground"/><use y="13532" xlink:href="#g101"/></g><g><use y="13600" xlink:href="#g2"/><use y="13617" xlink:href="#g3"/><use y="13634" xlink:href="#g8"/><use y="13651" xlink:href="#g10"/><rect width="8" height="17" x="208" y="13668" class="foreground"/><use y="13668" xlink:href="#g102"/></g><g><use y="13736" xlink:href="#g2"/><use y="13753" xlink:href="#g3"/><use y="13770" xlink:href="#g8"/><use y="13787" xlink:href="#g10"/><rect width="8" height="17" x="208" y="13804" class="foreground"/><use y="13804" xlink:href="#g103"/></g><g><use y="13872" xlink:href="#g2"/><use y="13889" xlink:href="#g3"/><use y="13906" xlink:href="#g8"/><use y="13923" xlink:href="#g10"/><rect width="8" height="17" x="208" y="13940" class="foreground"/><use y="13940" xlink:href="#g104"/></g><g><use y="14008" xlink:href="#g2"/><use y="14025" xlink:href="#g3"/><use y="14042" xlink:href="#g8"/><use y="14059" xlink:href="#g10"/><rect width="8" height="17" x="208" y="14076" class="foreground"/><use y="14076" xlink:href="#g105"/></g><g><use y="14144" xlink:href="#g2"/><use y="14161" xlink:href="#g3"/><use y="14178" xlink:href="#g8"/><use y="14195" xlink:href="#g10"/><rect width="8" height="17" x="208" y="14212" class="foreground"/><use y="14212" xlink:href="#g106"/></g><g><use y="14280" xlink:href="#g2"/><use y="14297" xlink:href="#g3"/><use y="14314" xlink:href="#g8"/><use y="14331" xlink:href="#g10"/><rect width="8" height="17" x="208" y="14348" class="foreground"/><use y="14348" xlink:href="#g107"/></g><g><use y="14416" xlink:href="#g2"/><use y="14433" xlink:href="#g3"/><use y="14450" xlink:href="#g8"/><use y="14467" xlink:href="#g10"/><rect width="8" height="17" x="208" y="14484" class="foreground"/><use y="14484" xlink:href="#g108"/></g><g><use y="14552" xlink:href="#g2"/><use y="14569" xlink:href="#g3"/><use y="14586" xlink:href="#g8"/><use y="14603" xlink:href="#g10"/><rect width="8" height="17" x="208" y="14620" class="foreground"/><use y="14620" xlink:href="#g109"/></g><g><use y="14688" xlink:href="#g2"/><use y="14705" xlink:href="#g3"/><use y="14722" xlink:href="#g8"/><use y="14739" xlink:href="#g10"/><rect width="8" height="17" x="208" y="14756" class="foreground"/><use y="14756" xlink:href="#g110"/></g><g><use y="14824" xlink:href="#g2"/><use y="14841" xlink:href="#g3"/><use y="14858" xlink:href="#g8"/><use y="14875" xlink:href="#g10"/><use y="14892" xlink:href="#g111"/><rect width="8" height="17" x="0" y="14909" class="foreground"/><use y="14909" xlink:href="#g9"/></g><g><use y="14960" xlink:href="#g2"/><use y="14977" xlink:href="#g3"/><use y="14994" xlink:href="#g8"/><use y="15011" xlink:href="#g10"/><use y="15028" xlink:href="#g111"/><rect width="8" height="17" x="0" y="15045" class="foreground"/><use y="15045" xlink:href="#g1"/></g><g><use y="15096" xlink:href="#g8"/><use y="15113" xlink:href="#g10"/><use y="15130" xlink:href="#g111"/><use y="15147" xlink:href="#g2"/><use y="15164" xlink:href="#g3"/><rect width="8" height="17" x="16" y="15181" class="foreground"/><use y="15181" xlink:href="#g112"/></g><g><use y="15232" xlink:href="#g8"/><use y="15249" xlink:href="#g10"/><use y="15266" xlink:href="#g111"/><use y="15283" xlink:href="#g2"/><use y="15300" xlink:href="#g3"/><rect width="8" height="17" x="16" y="15317" class="foreground"/><use y="15317" xlink:href="#g112"/></g><g><use y="15368" xlink:href="#g10"/><use y="15385" xlink:href="#g111"/><use y="15402" xlink:href="#g2"/><use y="15419" xlink:href="#g3"/><use y="15436" xlink:href="#g113"/><rect width="8" height="17" x="0" y="15453" class="foreground"/><use y="15453" xlink:href="#g9"/></g></g></svg></svg>